<?xml version="1.0" encoding="UTF-8"?> <svg xmlns="http://www.w3.org/2000/svg" id="Layer_1" data-name="Layer 1" viewBox="0 0 2249.49 821.2"><defs><style>.cls-1{fill:#58d5d3;}.cls-2{fill:#1f3c6b;}</style></defs><path class="cls-1" d="M125.88,269.67c0,.93,0,1.86-.13,2.78s-.23,1.85-.41,2.76-.41,1.81-.68,2.7a27.25,27.25,0,0,1-.94,2.62,26.31,26.31,0,0,1-1.19,2.52c-.44.82-.92,1.62-1.43,2.39s-1.07,1.52-1.66,2.24-1.22,1.4-1.87,2.06-1.35,1.28-2.07,1.87a27.42,27.42,0,0,1-2.23,1.66,28.44,28.44,0,0,1-4.91,2.62,27.43,27.43,0,0,1-2.63.94c-.89.27-1.79.5-2.7.68s-1.83.32-2.75.41-1.86.14-2.79.14-1.85-.05-2.78-.14-1.84-.23-2.75-.41a27.53,27.53,0,0,1-2.71-.68,27.25,27.25,0,0,1-2.62-.94,28.44,28.44,0,0,1-4.91-2.62,27.57,27.57,0,0,1-2.24-1.66c-.71-.59-1.4-1.21-2.06-1.87s-1.28-1.34-1.87-2.06-1.14-1.47-1.66-2.24a27.43,27.43,0,0,1-1.43-2.39,26.31,26.31,0,0,1-1.19-2.52,27.25,27.25,0,0,1-.94-2.62c-.27-.89-.5-1.79-.68-2.7s-.32-1.83-.41-2.76-.13-1.85-.13-2.78,0-1.86.13-2.78.23-1.85.41-2.76.41-1.81.68-2.7a27.25,27.25,0,0,1,.94-2.62,26.31,26.31,0,0,1,1.19-2.52,27.43,27.43,0,0,1,1.43-2.39c.52-.77,1.07-1.52,1.66-2.24s1.21-1.4,1.87-2.06,1.35-1.28,2.06-1.87,1.47-1.14,2.24-1.66a28.44,28.44,0,0,1,4.91-2.62,27.25,27.25,0,0,1,2.62-.94,27.53,27.53,0,0,1,2.71-.68c.91-.18,1.83-.32,2.75-.41s1.85-.14,2.78-.14,1.86.05,2.79.14,1.84.23,2.75.41,1.81.41,2.7.68a27.43,27.43,0,0,1,2.63.94,28.44,28.44,0,0,1,4.91,2.62,27.42,27.42,0,0,1,2.23,1.66c.72.59,1.41,1.21,2.07,1.87s1.28,1.34,1.87,2.06,1.14,1.47,1.66,2.24,1,1.57,1.43,2.39a26.31,26.31,0,0,1,1.19,2.52,27.25,27.25,0,0,1,.94,2.62c.27.89.5,1.79.68,2.7s.31,1.83.41,2.76.13,1.85.13,2.78Z" transform="translate(-57.08 -45.54)"></path><path class="cls-1" d="M113.86,365.67c0,.93,0,1.85-.14,2.78s-.23,1.84-.41,2.76-.41,1.81-.68,2.7-.58,1.76-.93,2.62-.76,1.7-1.2,2.52a26.46,26.46,0,0,1-1.43,2.39,27.57,27.57,0,0,1-1.66,2.24c-.59.71-1.21,1.4-1.87,2.06s-1.34,1.28-2.06,1.87-1.47,1.14-2.24,1.66a27.43,27.43,0,0,1-2.39,1.43,26.31,26.31,0,0,1-2.52,1.19,27.25,27.25,0,0,1-2.62.94c-.89.27-1.79.5-2.7.68s-1.83.32-2.76.41-1.85.13-2.78.13-1.86,0-2.78-.13-1.85-.23-2.76-.41-1.81-.41-2.7-.68a28.56,28.56,0,0,1-7.53-3.56c-.78-.52-1.52-1.07-2.24-1.66s-1.41-1.21-2.07-1.87-1.28-1.35-1.87-2.06-1.14-1.47-1.66-2.24-1-1.57-1.43-2.39-.83-1.66-1.19-2.52a27.25,27.25,0,0,1-.94-2.62c-.27-.89-.49-1.79-.67-2.7a25.87,25.87,0,0,1-.41-2.76c-.09-.93-.14-1.85-.14-2.78s.05-1.86.14-2.78a25.5,25.5,0,0,1,.41-2.76c.18-.91.4-1.81.67-2.7a26.31,26.31,0,0,1,.94-2.62c.36-.86.75-1.7,1.19-2.52s.92-1.62,1.43-2.39,1.07-1.52,1.66-2.24,1.22-1.41,1.87-2.06,1.35-1.28,2.07-1.87a25.93,25.93,0,0,1,2.24-1.66,27.53,27.53,0,0,1,2.39-1.44c.82-.43,1.66-.83,2.51-1.19s1.74-.67,2.63-.94,1.79-.49,2.7-.67,1.83-.32,2.76-.41,1.85-.14,2.78-.14,1.86.05,2.78.14,1.84.23,2.76.41,1.81.4,2.7.67,1.76.59,2.62.94,1.7.76,2.52,1.19a29.22,29.22,0,0,1,4.63,3.1c.72.59,1.4,1.21,2.06,1.87a28.05,28.05,0,0,1,3.53,4.3,25.15,25.15,0,0,1,1.43,2.39q.66,1.23,1.2,2.52c.35.85.66,1.73.93,2.62s.5,1.79.68,2.7.32,1.83.41,2.76.14,1.85.14,2.78Z" transform="translate(-57.08 -45.54)"></path><path class="cls-1" d="M160.78,186.29c0,.93-.05,1.86-.14,2.78s-.23,1.84-.41,2.76-.41,1.81-.68,2.7a27.25,27.25,0,0,1-.94,2.62,26.31,26.31,0,0,1-1.19,2.52,25.15,25.15,0,0,1-1.43,2.39c-.52.77-1.07,1.52-1.66,2.24s-1.21,1.4-1.87,2.06-1.34,1.28-2.06,1.87-1.47,1.14-2.24,1.66a27.43,27.43,0,0,1-2.39,1.43,26.31,26.31,0,0,1-2.52,1.19,27.25,27.25,0,0,1-2.62.94c-.89.27-1.79.5-2.7.68s-1.83.32-2.76.41-1.85.13-2.78.13-1.86,0-2.78-.13-1.85-.23-2.76-.41-1.81-.41-2.7-.68a27.43,27.43,0,0,1-2.63-.94,26.14,26.14,0,0,1-2.51-1.19,27.43,27.43,0,0,1-2.39-1.43c-.78-.52-1.52-1.07-2.24-1.66s-1.41-1.21-2.07-1.87S111,205,110.44,204.3s-1.14-1.47-1.66-2.24-1-1.57-1.43-2.39-.83-1.66-1.19-2.52a27.25,27.25,0,0,1-.94-2.62c-.27-.89-.49-1.79-.68-2.7s-.31-1.83-.4-2.76a27.67,27.67,0,0,1,0-5.56c.09-.93.22-1.85.4-2.76s.41-1.81.68-2.7a26.31,26.31,0,0,1,.94-2.62c.36-.86.75-1.7,1.19-2.52s.92-1.62,1.43-2.39,1.07-1.52,1.66-2.24,1.22-1.41,1.87-2.06,1.35-1.28,2.07-1.87a25.93,25.93,0,0,1,2.24-1.66,27.53,27.53,0,0,1,2.39-1.44c.82-.43,1.65-.83,2.51-1.19a27.36,27.36,0,0,1,2.63-.93c.89-.27,1.79-.5,2.7-.68s1.83-.32,2.76-.41,1.85-.14,2.78-.14,1.85,0,2.78.14,1.84.23,2.76.41,1.81.41,2.7.68a27.18,27.18,0,0,1,2.62.93c.86.36,1.7.76,2.52,1.19a29.22,29.22,0,0,1,4.63,3.1c.72.59,1.4,1.21,2.06,1.87a26.11,26.11,0,0,1,1.87,2.06c.59.72,1.14,1.46,1.66,2.24a25.15,25.15,0,0,1,1.43,2.39,28.81,28.81,0,0,1,2.13,5.14c.27.89.5,1.79.68,2.7s.32,1.83.41,2.76.14,1.85.14,2.78Z" transform="translate(-57.08 -45.54)"></path><path class="cls-1" d="M521.54,237.93c0,.93,0,1.86-.13,2.79s-.23,1.84-.41,2.75-.41,1.81-.68,2.7a27.43,27.43,0,0,1-.94,2.63,26.14,26.14,0,0,1-1.19,2.51c-.44.82-.92,1.62-1.43,2.39s-1.07,1.52-1.66,2.24-1.21,1.41-1.87,2.07-1.35,1.28-2.07,1.87-1.46,1.14-2.23,1.66-1.57,1-2.39,1.43-1.66.83-2.52,1.19-1.74.67-2.63.94a27.29,27.29,0,0,1-2.7.67c-.91.18-1.83.32-2.75.41s-1.86.14-2.79.14-1.85-.05-2.78-.14-1.84-.23-2.75-.41a27.49,27.49,0,0,1-2.71-.67c-.89-.27-1.76-.59-2.62-.94s-1.7-.75-2.52-1.19-1.61-.92-2.39-1.43-1.52-1.07-2.24-1.66-1.4-1.22-2.06-1.87-1.28-1.35-1.87-2.07-1.14-1.46-1.66-2.24a27.43,27.43,0,0,1-1.43-2.39,26.14,26.14,0,0,1-1.19-2.51,27.43,27.43,0,0,1-.94-2.63c-.27-.89-.5-1.79-.68-2.7s-.32-1.83-.41-2.75-.13-1.86-.13-2.79,0-1.85.13-2.78.23-1.84.41-2.75a27.53,27.53,0,0,1,.68-2.71,27.25,27.25,0,0,1,.94-2.62,26.31,26.31,0,0,1,1.19-2.52c.44-.82.91-1.61,1.43-2.39s1.07-1.52,1.66-2.23,1.21-1.41,1.87-2.07,1.35-1.28,2.06-1.87,1.47-1.14,2.24-1.66,1.57-1,2.39-1.43a26.31,26.31,0,0,1,2.52-1.19,27.25,27.25,0,0,1,2.62-.94c.89-.27,1.79-.49,2.71-.68s1.83-.31,2.75-.4a27.77,27.77,0,0,1,5.57,0c.92.09,1.84.22,2.75.4s1.82.41,2.7.68a27.43,27.43,0,0,1,2.63.94,26.31,26.31,0,0,1,2.52,1.19c.82.44,1.61.92,2.39,1.43s1.51,1.07,2.23,1.66,1.41,1.21,2.07,1.87,1.28,1.35,1.87,2.07,1.14,1.46,1.66,2.23,1,1.57,1.43,2.39a26.31,26.31,0,0,1,1.19,2.52,27.25,27.25,0,0,1,.94,2.62,27.53,27.53,0,0,1,.68,2.71c.18.91.31,1.83.41,2.75s.13,1.85.13,2.78Z" transform="translate(-57.08 -45.54)"></path><path class="cls-1" d="M684,293.52c0,.93,0,1.86-.14,2.78s-.23,1.85-.41,2.76-.41,1.81-.68,2.7-.58,1.77-.93,2.62-.76,1.7-1.2,2.52a25.15,25.15,0,0,1-1.43,2.39,27.57,27.57,0,0,1-1.66,2.24,26.11,26.11,0,0,1-1.87,2.06c-.66.66-1.34,1.28-2.06,1.87a29.22,29.22,0,0,1-4.63,3.1c-.82.43-1.66.83-2.52,1.19s-1.73.66-2.62.93-1.79.5-2.7.68-1.83.32-2.76.41-1.85.14-2.78.14-1.86-.05-2.78-.14-1.85-.23-2.76-.41-1.81-.41-2.7-.68-1.77-.58-2.63-.93-1.69-.76-2.51-1.19a27.53,27.53,0,0,1-2.39-1.44,25.93,25.93,0,0,1-2.24-1.66c-.72-.59-1.41-1.21-2.07-1.87s-1.28-1.34-1.87-2.06-1.14-1.47-1.66-2.24-1-1.57-1.43-2.39-.83-1.66-1.19-2.52a26.31,26.31,0,0,1-.94-2.62c-.27-.89-.49-1.79-.67-2.7a25.5,25.5,0,0,1-.41-2.76c-.09-.92-.14-1.85-.14-2.78s0-1.86.14-2.78a25.87,25.87,0,0,1,.41-2.76c.18-.91.4-1.81.67-2.7a27.25,27.25,0,0,1,.94-2.62c.36-.86.75-1.7,1.19-2.52s.92-1.62,1.43-2.39,1.07-1.52,1.66-2.24,1.22-1.4,1.87-2.06,1.35-1.28,2.07-1.87,1.46-1.14,2.24-1.66a28.29,28.29,0,0,1,7.53-3.56c.89-.27,1.79-.5,2.7-.68s1.83-.32,2.76-.41,1.85-.13,2.78-.13,1.86,0,2.78.13,1.84.23,2.76.41,1.81.41,2.7.68a27.25,27.25,0,0,1,2.62.94,26.31,26.31,0,0,1,2.52,1.19,27.43,27.43,0,0,1,2.39,1.43c.77.52,1.52,1.07,2.24,1.66s1.4,1.21,2.06,1.87,1.28,1.35,1.87,2.06a27.57,27.57,0,0,1,1.66,2.24,25.15,25.15,0,0,1,1.43,2.39q.66,1.23,1.2,2.52c.35.86.66,1.73.93,2.62s.5,1.79.68,2.7.32,1.83.41,2.76.14,1.85.14,2.78Z" transform="translate(-57.08 -45.54)"></path><path class="cls-1" d="M672.35,408.05c0,.93,0,1.86-.13,2.78s-.23,1.84-.41,2.76-.41,1.81-.68,2.7a27.25,27.25,0,0,1-.94,2.62,26.31,26.31,0,0,1-1.19,2.52,27.43,27.43,0,0,1-1.43,2.39c-.52.77-1.07,1.52-1.66,2.24s-1.21,1.4-1.87,2.06S662.69,429.4,662,430s-1.47,1.14-2.24,1.66a27.43,27.43,0,0,1-2.39,1.43,26.31,26.31,0,0,1-2.52,1.19,27.25,27.25,0,0,1-2.62.94,27.53,27.53,0,0,1-2.71.68c-.91.18-1.83.32-2.75.41s-1.85.13-2.78.13-1.86,0-2.79-.13-1.84-.23-2.75-.41-1.81-.41-2.7-.68a27.43,27.43,0,0,1-2.63-.94,26.31,26.31,0,0,1-2.52-1.19c-.82-.44-1.61-.91-2.39-1.43s-1.51-1.07-2.23-1.66-1.41-1.21-2.07-1.87-1.28-1.35-1.87-2.06-1.14-1.47-1.66-2.24-1-1.57-1.43-2.39-.83-1.66-1.19-2.52a27.25,27.25,0,0,1-.94-2.62c-.27-.89-.49-1.79-.68-2.7s-.31-1.83-.4-2.76a27.67,27.67,0,0,1,0-5.56c.09-.93.22-1.85.4-2.76s.41-1.81.68-2.7a26.31,26.31,0,0,1,.94-2.62c.36-.86.75-1.7,1.19-2.52s.92-1.62,1.43-2.39,1.07-1.52,1.66-2.24,1.22-1.41,1.87-2.06,1.35-1.28,2.07-1.87a27.42,27.42,0,0,1,2.23-1.66,26.46,26.46,0,0,1,2.39-1.43q1.23-.66,2.52-1.2c.86-.35,1.74-.66,2.63-.93s1.79-.5,2.7-.68,1.83-.32,2.75-.41,1.86-.14,2.79-.14,1.85,0,2.78.14,1.84.23,2.75.41a27.53,27.53,0,0,1,2.71.68c.89.27,1.76.58,2.62.93s1.7.76,2.52,1.2a25.15,25.15,0,0,1,2.39,1.43,27.57,27.57,0,0,1,2.24,1.66c.71.59,1.4,1.21,2.06,1.87a26.11,26.11,0,0,1,1.87,2.06c.59.72,1.14,1.47,1.66,2.24a27.43,27.43,0,0,1,1.43,2.39,28.81,28.81,0,0,1,2.13,5.14c.27.89.5,1.79.68,2.7s.32,1.83.41,2.76.13,1.85.13,2.78Z" transform="translate(-57.08 -45.54)"></path><path class="cls-1" d="M600,582.11c0,.93,0,1.85-.13,2.78s-.23,1.84-.41,2.75a27.53,27.53,0,0,1-.68,2.71,27.25,27.25,0,0,1-.94,2.62,26.31,26.31,0,0,1-1.19,2.52c-.44.82-.91,1.61-1.43,2.39s-1.07,1.52-1.66,2.23-1.21,1.41-1.87,2.07-1.35,1.28-2.06,1.87-1.47,1.14-2.24,1.66-1.57,1-2.39,1.43a26.31,26.31,0,0,1-2.52,1.19,27.25,27.25,0,0,1-2.62.94c-.89.27-1.79.49-2.71.68s-1.83.31-2.75.4a27.77,27.77,0,0,1-5.57,0c-.92-.09-1.84-.22-2.75-.4s-1.81-.41-2.7-.68a27.43,27.43,0,0,1-2.63-.94,26.31,26.31,0,0,1-2.52-1.19c-.82-.44-1.61-.92-2.39-1.43s-1.51-1.07-2.23-1.66-1.41-1.22-2.07-1.87-1.28-1.35-1.87-2.07-1.14-1.46-1.66-2.23-1-1.57-1.43-2.39a26.31,26.31,0,0,1-1.19-2.52,27.25,27.25,0,0,1-.94-2.62,27.53,27.53,0,0,1-.68-2.71c-.18-.91-.31-1.83-.41-2.75s-.13-1.85-.13-2.78,0-1.86.13-2.79.23-1.84.41-2.75.41-1.81.68-2.7a27.43,27.43,0,0,1,.94-2.63,26.14,26.14,0,0,1,1.19-2.51c.44-.82.92-1.62,1.43-2.39s1.07-1.52,1.66-2.24,1.22-1.41,1.87-2.07,1.35-1.28,2.07-1.87,1.46-1.14,2.23-1.66,1.57-1,2.39-1.43,1.66-.83,2.52-1.19,1.74-.67,2.63-.94,1.79-.49,2.7-.67a25.69,25.69,0,0,1,2.75-.41c.93-.09,1.86-.14,2.79-.14s1.85,0,2.78.14a25.69,25.69,0,0,1,2.75.41,27.49,27.49,0,0,1,2.71.67c.89.27,1.76.59,2.62.94s1.7.75,2.52,1.19,1.61.92,2.39,1.43,1.52,1.07,2.24,1.66,1.4,1.22,2.06,1.87,1.28,1.35,1.87,2.07,1.14,1.46,1.66,2.24a27.43,27.43,0,0,1,1.43,2.39,26.14,26.14,0,0,1,1.19,2.51,27.43,27.43,0,0,1,.94,2.63c.27.89.5,1.79.68,2.7s.32,1.83.41,2.75.13,1.86.13,2.79Z" transform="translate(-57.08 -45.54)"></path><path class="cls-1" d="M558.21,111.58a25.75,25.75,0,0,1-.14,2.78c-.09.93-.22,1.85-.4,2.76s-.41,1.81-.68,2.7a27.25,27.25,0,0,1-.94,2.62c-.36.86-.75,1.7-1.19,2.52s-.92,1.62-1.43,2.39-1.07,1.52-1.66,2.24-1.22,1.4-1.87,2.06-1.35,1.28-2.07,1.87-1.46,1.14-2.24,1.66a27.43,27.43,0,0,1-2.39,1.43,26.14,26.14,0,0,1-2.51,1.19,27.43,27.43,0,0,1-2.63.94c-.89.27-1.79.5-2.7.68s-1.83.32-2.75.41-1.86.13-2.79.13-1.85,0-2.78-.13-1.84-.23-2.76-.41-1.81-.41-2.7-.68a27.25,27.25,0,0,1-2.62-.94,26.31,26.31,0,0,1-2.52-1.19,27.43,27.43,0,0,1-2.39-1.43c-.77-.52-1.52-1.07-2.24-1.66s-1.4-1.21-2.06-1.87-1.28-1.34-1.87-2.06a27.57,27.57,0,0,1-1.66-2.24,25.15,25.15,0,0,1-1.43-2.39,26.31,26.31,0,0,1-1.19-2.52,27.25,27.25,0,0,1-.94-2.62c-.27-.89-.5-1.79-.68-2.7s-.32-1.83-.41-2.76-.14-1.85-.14-2.78.05-1.86.14-2.78.23-1.85.41-2.76.41-1.81.68-2.7a27.25,27.25,0,0,1,.94-2.62,26.31,26.31,0,0,1,1.19-2.52,25.15,25.15,0,0,1,1.43-2.39,27.57,27.57,0,0,1,1.66-2.24c.59-.72,1.21-1.4,1.87-2.06s1.34-1.28,2.06-1.87A27.57,27.57,0,0,1,514.05,88a25.15,25.15,0,0,1,2.39-1.43q1.23-.66,2.52-1.2c.86-.35,1.73-.66,2.62-.93s1.79-.5,2.7-.68,1.83-.32,2.76-.41,1.85-.14,2.78-.14,1.86,0,2.79.14,1.84.23,2.75.41,1.81.41,2.7.68,1.77.58,2.63.93,1.69.76,2.51,1.2A25.15,25.15,0,0,1,545.59,88a25.93,25.93,0,0,1,2.24,1.66c.72.59,1.41,1.21,2.07,1.87s1.28,1.34,1.87,2.06,1.14,1.47,1.66,2.24,1,1.57,1.43,2.39.83,1.66,1.19,2.52a27.25,27.25,0,0,1,.94,2.62c.27.89.49,1.79.68,2.7s.31,1.83.4,2.76a25.75,25.75,0,0,1,.14,2.78Z" transform="translate(-57.08 -45.54)"></path><path class="cls-1" d="M630.36,198.9c0,.93,0,1.86-.13,2.79s-.23,1.84-.41,2.75-.41,1.81-.68,2.7a27.43,27.43,0,0,1-.94,2.63,26.14,26.14,0,0,1-1.19,2.51,27.43,27.43,0,0,1-1.43,2.39c-.52.78-1.07,1.52-1.66,2.24s-1.21,1.41-1.87,2.07-1.35,1.28-2.06,1.87-1.47,1.14-2.24,1.66-1.57,1-2.39,1.43-1.66.83-2.52,1.19-1.73.67-2.62.94a27.49,27.49,0,0,1-2.71.67,25.69,25.69,0,0,1-2.75.41c-.93.09-1.85.14-2.78.14s-1.86,0-2.79-.14a25.69,25.69,0,0,1-2.75-.41,27.29,27.29,0,0,1-2.7-.67c-.89-.27-1.77-.59-2.63-.94s-1.7-.75-2.52-1.19-1.61-.92-2.39-1.43-1.51-1.07-2.23-1.66-1.41-1.22-2.07-1.87-1.28-1.35-1.87-2.07-1.14-1.46-1.66-2.24-1-1.57-1.43-2.39a26.14,26.14,0,0,1-1.19-2.51,27.43,27.43,0,0,1-.94-2.63c-.27-.89-.5-1.79-.68-2.7s-.31-1.83-.41-2.75-.13-1.86-.13-2.79,0-1.85.13-2.78.23-1.84.41-2.75a27.53,27.53,0,0,1,.68-2.71,27.25,27.25,0,0,1,.94-2.62,26.31,26.31,0,0,1,1.19-2.52c.44-.82.92-1.61,1.43-2.39s1.07-1.52,1.66-2.23,1.21-1.41,1.87-2.07,1.35-1.28,2.07-1.87,1.46-1.14,2.23-1.66,1.57-1,2.39-1.43a26.31,26.31,0,0,1,2.52-1.19,27.43,27.43,0,0,1,2.63-.94c.88-.27,1.79-.49,2.7-.68s1.83-.31,2.75-.4a27.77,27.77,0,0,1,5.57,0c.92.09,1.84.22,2.75.4s1.82.41,2.71.68a27.25,27.25,0,0,1,2.62.94,26.31,26.31,0,0,1,2.52,1.19c.82.44,1.61.92,2.39,1.43s1.52,1.07,2.24,1.66,1.4,1.21,2.06,1.87,1.28,1.35,1.87,2.07,1.14,1.46,1.66,2.23,1,1.57,1.43,2.39A26.31,26.31,0,0,1,628.2,188a27.25,27.25,0,0,1,.94,2.62,27.53,27.53,0,0,1,.68,2.71c.18.91.32,1.83.41,2.75s.13,1.85.13,2.78Z" transform="translate(-57.08 -45.54)"></path><path class="cls-1" d="M369.94,291a25.75,25.75,0,0,1-.14,2.78c-.09.93-.22,1.84-.4,2.76s-.41,1.81-.68,2.7a27.25,27.25,0,0,1-.94,2.62c-.36.86-.75,1.7-1.19,2.52s-.92,1.62-1.43,2.39-1.07,1.52-1.66,2.24-1.22,1.4-1.87,2.06-1.35,1.28-2.07,1.87-1.46,1.14-2.23,1.66-1.57,1-2.39,1.43a26.31,26.31,0,0,1-2.52,1.19,27.43,27.43,0,0,1-2.63.94c-.89.27-1.79.5-2.7.68s-1.83.32-2.75.41-1.86.13-2.79.13-1.85,0-2.78-.13-1.84-.23-2.76-.41-1.81-.41-2.7-.68a27.25,27.25,0,0,1-2.62-.94,26.31,26.31,0,0,1-2.52-1.19,27.43,27.43,0,0,1-2.39-1.43c-.77-.52-1.52-1.07-2.24-1.66s-1.4-1.21-2.06-1.87-1.28-1.34-1.87-2.06-1.14-1.47-1.66-2.24a27.43,27.43,0,0,1-1.43-2.39,26.31,26.31,0,0,1-1.19-2.52,27.25,27.25,0,0,1-.94-2.62c-.27-.89-.5-1.79-.68-2.7s-.32-1.83-.41-2.76-.13-1.85-.13-2.78,0-1.86.13-2.78.23-1.85.41-2.76.41-1.81.68-2.7a27.25,27.25,0,0,1,.94-2.62,26.31,26.31,0,0,1,1.19-2.52,27.43,27.43,0,0,1,1.43-2.39c.52-.77,1.07-1.52,1.66-2.24a26.11,26.11,0,0,1,1.87-2.06c.66-.66,1.35-1.28,2.06-1.87a27.57,27.57,0,0,1,2.24-1.66,25.15,25.15,0,0,1,2.39-1.43q1.23-.66,2.52-1.2c.86-.35,1.73-.66,2.62-.93s1.79-.5,2.7-.68,1.84-.32,2.76-.41,1.85-.14,2.78-.14,1.86.05,2.79.14,1.84.23,2.75.41,1.81.41,2.7.68,1.77.58,2.63.93,1.7.76,2.52,1.2a26.46,26.46,0,0,1,2.39,1.43,27.42,27.42,0,0,1,2.23,1.66c.72.59,1.41,1.21,2.07,1.87s1.28,1.34,1.87,2.06,1.14,1.47,1.66,2.24,1,1.57,1.43,2.39.83,1.66,1.19,2.52a27.25,27.25,0,0,1,.94,2.62c.27.89.49,1.79.68,2.7s.31,1.83.4,2.76a25.75,25.75,0,0,1,.14,2.78Z" transform="translate(-57.08 -45.54)"></path><path class="cls-1" d="M484.87,73.93c0,.93,0,1.86-.13,2.78s-.23,1.85-.41,2.76-.41,1.81-.68,2.7a27.25,27.25,0,0,1-.94,2.62,26.31,26.31,0,0,1-1.19,2.52,27.43,27.43,0,0,1-1.43,2.39c-.52.77-1.07,1.52-1.66,2.24s-1.21,1.4-1.87,2.06-1.35,1.28-2.06,1.87S473,97,472.26,97.53s-1.57,1-2.39,1.43a26.31,26.31,0,0,1-2.52,1.19,27.25,27.25,0,0,1-2.62.94,27.53,27.53,0,0,1-2.71.68c-.91.18-1.83.32-2.75.41s-1.85.13-2.78.13-1.86,0-2.79-.13-1.84-.23-2.75-.41-1.81-.41-2.7-.68a27.43,27.43,0,0,1-2.63-.94A26.31,26.31,0,0,1,443.1,99c-.82-.44-1.61-.91-2.39-1.43s-1.51-1.07-2.23-1.66-1.41-1.21-2.07-1.87-1.28-1.34-1.87-2.06-1.14-1.47-1.66-2.24-1-1.57-1.43-2.39a26.31,26.31,0,0,1-1.19-2.52,27.25,27.25,0,0,1-.94-2.62c-.27-.89-.5-1.79-.68-2.7s-.31-1.83-.41-2.76-.13-1.85-.13-2.78,0-1.86.13-2.78.23-1.85.41-2.76.41-1.81.68-2.7a27.25,27.25,0,0,1,.94-2.62,26.31,26.31,0,0,1,1.19-2.52c.44-.82.92-1.62,1.43-2.39s1.07-1.52,1.66-2.24,1.22-1.4,1.87-2.06,1.35-1.28,2.07-1.87a27.42,27.42,0,0,1,2.23-1.66,26.46,26.46,0,0,1,2.39-1.43q1.23-.66,2.52-1.2c.86-.35,1.74-.66,2.63-.93s1.79-.5,2.7-.68,1.83-.32,2.75-.41,1.86-.14,2.79-.14,1.85.05,2.78.14,1.84.23,2.75.41a27.53,27.53,0,0,1,2.71.68c.89.27,1.76.58,2.62.93s1.7.76,2.52,1.2a26.46,26.46,0,0,1,2.39,1.43A27.57,27.57,0,0,1,474.5,52c.71.59,1.4,1.21,2.06,1.87s1.28,1.34,1.87,2.06,1.14,1.47,1.66,2.24a27.43,27.43,0,0,1,1.43,2.39,26.31,26.31,0,0,1,1.19,2.52,27.25,27.25,0,0,1,.94,2.62c.27.89.5,1.79.68,2.7s.32,1.83.41,2.76.13,1.85.13,2.78Z" transform="translate(-57.08 -45.54)"></path><path class="cls-1" d="M239.63,111.58c0,.93,0,1.86-.13,2.78s-.23,1.85-.41,2.76-.41,1.81-.68,2.7a27.25,27.25,0,0,1-.94,2.62,26.31,26.31,0,0,1-1.19,2.52c-.44.82-.92,1.62-1.43,2.39s-1.07,1.52-1.66,2.24-1.22,1.4-1.87,2.06-1.35,1.28-2.07,1.87-1.46,1.14-2.23,1.66-1.57,1-2.39,1.43a26.31,26.31,0,0,1-2.52,1.19,27.43,27.43,0,0,1-2.63.94c-.89.27-1.79.5-2.7.68s-1.83.32-2.75.41-1.86.13-2.79.13-1.85,0-2.78-.13-1.84-.23-2.75-.41a27.53,27.53,0,0,1-2.71-.68,27.25,27.25,0,0,1-2.62-.94,26.31,26.31,0,0,1-2.52-1.19c-.82-.44-1.61-.91-2.39-1.43s-1.52-1.07-2.24-1.66-1.4-1.21-2.06-1.87-1.28-1.34-1.87-2.06-1.14-1.47-1.66-2.24a27.43,27.43,0,0,1-1.43-2.39,26.31,26.31,0,0,1-1.19-2.52,27.25,27.25,0,0,1-.94-2.62c-.27-.89-.5-1.79-.68-2.7s-.32-1.83-.41-2.76-.13-1.85-.13-2.78,0-1.86.13-2.78.23-1.85.41-2.76.41-1.81.68-2.7a27.25,27.25,0,0,1,.94-2.62,26.31,26.31,0,0,1,1.19-2.52,27.43,27.43,0,0,1,1.43-2.39c.52-.77,1.07-1.52,1.66-2.24s1.21-1.4,1.87-2.06,1.35-1.28,2.06-1.87A27.57,27.57,0,0,1,195.47,88a26.46,26.46,0,0,1,2.39-1.43q1.23-.66,2.52-1.2c.86-.35,1.73-.66,2.62-.93a27.53,27.53,0,0,1,2.71-.68c.91-.18,1.83-.32,2.75-.41s1.85-.14,2.78-.14,1.86,0,2.79.14,1.84.23,2.75.41,1.81.41,2.7.68,1.77.58,2.63.93,1.7.76,2.52,1.2A26.46,26.46,0,0,1,227,88a27.42,27.42,0,0,1,2.23,1.66c.72.59,1.41,1.21,2.07,1.87s1.28,1.34,1.87,2.06,1.14,1.47,1.66,2.24,1,1.57,1.43,2.39a26.31,26.31,0,0,1,1.19,2.52,27.25,27.25,0,0,1,.94,2.62c.27.89.5,1.79.68,2.7s.31,1.83.41,2.76.13,1.85.13,2.78Z" transform="translate(-57.08 -45.54)"></path><path class="cls-1" d="M252.25,801.9a12.41,12.41,0,0,1-12.62-12.42V440.18l-136-146.66a12.91,12.91,0,0,1,.39-17.94,12.57,12.57,0,0,1,17.94.79L261.51,426.78a11.94,11.94,0,0,1,3.36,8.27V789.28a12.34,12.34,0,0,1-12.62,12.62Z" transform="translate(-57.08 -45.54)"></path><path class="cls-1" d="M327.75,866.75a12.62,12.62,0,0,1-12.61-12.81V387L123.52,195.36a12.55,12.55,0,0,1,17.74-17.75L336.62,373a12.53,12.53,0,0,1,3.75,8.87V853.94a12.88,12.88,0,0,1-12.62,12.81Z" transform="translate(-57.08 -45.54)"></path><path class="cls-1" d="M411.93,866.75a12.62,12.62,0,0,1-12.61-12.81V223.35a11.48,11.48,0,0,1,3.74-8.87l94.83-94.82a12.86,12.86,0,0,1,17.74,0,12.49,12.49,0,0,1,0,17.74l-91.08,91.27V853.94a12.75,12.75,0,0,1-12.62,12.81Z" transform="translate(-57.08 -45.54)"></path><path class="cls-1" d="M492.37,801.9c-7.1,0-12.82-5.33-12.82-12.42V458.31a12.55,12.55,0,0,1,3.75-8.67l164.22-164.2a12.61,12.61,0,0,1,17.93,17.74L505,463.64V789.48a12.29,12.29,0,0,1-12.61,12.42Z" transform="translate(-57.08 -45.54)"></path><path class="cls-1" d="M602.17,361.33A12.17,12.17,0,0,1,593.3,358L489,253.7A12.68,12.68,0,0,1,507,235.77L611,339.84A13.35,13.35,0,0,1,611,358a13.13,13.13,0,0,1-8.87,3.35Z" transform="translate(-57.08 -45.54)"></path><path class="cls-1" d="M242.79,303.77a12.51,12.51,0,0,1-9.07-3.74,13,13,0,0,1,0-18.14L449,66.64a12.61,12.61,0,1,1,17.94,17.74L251.66,300a13.31,13.31,0,0,1-8.87,3.74Z" transform="translate(-57.08 -45.54)"></path><path class="cls-1" d="M313,233.2a11.67,11.67,0,0,1-8.68-3.74L216,141.15a12.49,12.49,0,0,1,0-17.74,12.86,12.86,0,0,1,17.74,0L322,211.72a12.86,12.86,0,0,1,0,17.74A12.54,12.54,0,0,1,313,233.2Z" transform="translate(-57.08 -45.54)"></path><path class="cls-1" d="M342,79.05c0,.93-.05,1.86-.14,2.79s-.23,1.84-.41,2.75-.4,1.81-.67,2.7-.59,1.77-.94,2.63-.76,1.7-1.19,2.52a27.36,27.36,0,0,1-1.44,2.38,25.93,25.93,0,0,1-1.66,2.24c-.59.72-1.21,1.41-1.87,2.07s-1.34,1.28-2.06,1.87-1.47,1.14-2.24,1.66-1.57,1-2.39,1.43-1.66.83-2.52,1.19-1.73.67-2.62.94-1.79.49-2.7.67a25.5,25.5,0,0,1-2.76.41c-.92.09-1.85.14-2.78.14s-1.86,0-2.78-.14a25.5,25.5,0,0,1-2.76-.41c-.91-.18-1.81-.4-2.7-.67s-1.77-.59-2.62-.94-1.7-.75-2.52-1.19-1.62-.92-2.39-1.43-1.52-1.07-2.24-1.66-1.41-1.22-2.06-1.87A28.79,28.79,0,0,1,290,94.82a27.36,27.36,0,0,1-1.44-2.38c-.43-.82-.83-1.66-1.19-2.52s-.67-1.74-.94-2.63-.49-1.79-.67-2.7-.32-1.83-.41-2.75-.14-1.86-.14-2.79.05-1.85.14-2.78.23-1.84.41-2.75a27.49,27.49,0,0,1,.67-2.71c.27-.88.59-1.76.94-2.62s.76-1.7,1.19-2.52.92-1.61,1.44-2.39a27.42,27.42,0,0,1,1.66-2.23A26.07,26.07,0,0,1,293.49,59c.65-.65,1.34-1.28,2.06-1.87S297,56,297.79,55.45s1.57-1,2.39-1.43,1.66-.83,2.52-1.19a26.31,26.31,0,0,1,2.62-.94c.89-.27,1.79-.49,2.7-.68s1.83-.31,2.76-.4a27.67,27.67,0,0,1,5.56,0c.93.09,1.85.22,2.76.4s1.81.41,2.7.68a27.25,27.25,0,0,1,2.62.94c.86.36,1.7.75,2.52,1.19s1.62.92,2.39,1.43,1.52,1.07,2.24,1.66S333,58.33,333.63,59s1.28,1.35,1.87,2.07a27.42,27.42,0,0,1,1.66,2.23c.52.78,1,1.57,1.44,2.39s.83,1.66,1.19,2.52.67,1.74.94,2.62a27.49,27.49,0,0,1,.67,2.71c.18.91.32,1.83.41,2.75s.14,1.85.14,2.78Z" transform="translate(-57.08 -45.54)"></path><path class="cls-1" d="M380.59,165.59a12.39,12.39,0,0,1-8.87-3.74l-53.43-53.42a12.26,12.26,0,0,1,0-17.55,12.73,12.73,0,0,1,17.94,0l53.43,53.42a12.51,12.51,0,0,1,0,17.74,13.52,13.52,0,0,1-9.07,3.55Z" transform="translate(-57.08 -45.54)"></path><path class="cls-1" d="M410.36,371.38a11.3,11.3,0,0,1-8.88-3.94l-59.93-59.73a12.25,12.25,0,0,1,0-17.54,12.73,12.73,0,0,1,17.94,0l59.74,59.93a12.25,12.25,0,0,1,0,17.54,12.42,12.42,0,0,1-8.87,3.74Z" transform="translate(-57.08 -45.54)"></path><path class="cls-1" d="M519.77,350.88c0,.93,0,1.86-.14,2.79s-.23,1.84-.41,2.75-.4,1.81-.67,2.7-.59,1.77-.94,2.63-.76,1.69-1.19,2.51a27.53,27.53,0,0,1-1.44,2.39,25.93,25.93,0,0,1-1.66,2.24c-.59.72-1.21,1.41-1.87,2.07s-1.34,1.28-2.06,1.87-1.47,1.14-2.24,1.66-1.57,1-2.39,1.43-1.66.83-2.52,1.19-1.73.67-2.62.94-1.79.49-2.7.67a25.5,25.5,0,0,1-2.76.41c-.92.09-1.85.14-2.78.14s-1.86,0-2.78-.14a25.5,25.5,0,0,1-2.76-.41c-.91-.18-1.81-.4-2.7-.67s-1.76-.59-2.62-.94-1.7-.75-2.52-1.19-1.62-.92-2.39-1.43-1.52-1.07-2.24-1.66-1.41-1.22-2.06-1.87-1.28-1.35-1.87-2.07a25.93,25.93,0,0,1-1.66-2.24,27.53,27.53,0,0,1-1.44-2.39c-.43-.82-.83-1.65-1.19-2.51s-.67-1.74-.94-2.63-.49-1.79-.67-2.7-.32-1.83-.41-2.75-.14-1.86-.14-2.79.05-1.85.14-2.78.23-1.84.41-2.75a27.49,27.49,0,0,1,.67-2.71c.27-.89.59-1.76.94-2.62s.76-1.7,1.19-2.52.92-1.61,1.44-2.39a25.78,25.78,0,0,1,1.66-2.23c.59-.72,1.21-1.41,1.87-2.07a26.11,26.11,0,0,1,2.06-1.87c.72-.59,1.47-1.14,2.24-1.66s1.57-1,2.39-1.43a26.31,26.31,0,0,1,2.52-1.19,27.25,27.25,0,0,1,2.62-.94c.89-.27,1.79-.49,2.7-.68s1.83-.31,2.76-.4a27.67,27.67,0,0,1,5.56,0c.93.09,1.85.22,2.76.4s1.81.41,2.7.68a27.25,27.25,0,0,1,2.62.94,26.31,26.31,0,0,1,2.52,1.19c.82.44,1.62.92,2.39,1.43s1.52,1.07,2.24,1.66a26.11,26.11,0,0,1,2.06,1.87c.66.66,1.28,1.35,1.87,2.07a25.78,25.78,0,0,1,1.66,2.23c.52.78,1,1.57,1.44,2.39s.83,1.66,1.19,2.52.67,1.73.94,2.62a27.49,27.49,0,0,1,.67,2.71c.18.91.32,1.83.41,2.75s.14,1.85.14,2.78Z" transform="translate(-57.08 -45.54)"></path><path class="cls-1" d="M544.61,415.93a12.28,12.28,0,0,1-8.87-3.94l-44.36-44.15a12.69,12.69,0,0,1,17.94-17.94l44.36,44.15a12.4,12.4,0,0,1,0,17.94,12.75,12.75,0,0,1-9.07,3.94Z" transform="translate(-57.08 -45.54)"></path><path class="cls-1" d="M528.44,288a11.3,11.3,0,0,1-8.87-3.94c-4.93-4.73-4.93-12.81,0-17.94L588,197.92a12.61,12.61,0,1,1,17.94,17.74l-68.41,68.4a12.27,12.27,0,0,1-9.07,3.94Z" transform="translate(-57.08 -45.54)"></path><path class="cls-1" d="M252.05,545.05a12.42,12.42,0,0,1-8.87-3.75L76.4,374.34a12.25,12.25,0,0,1,0-17.54,12.73,12.73,0,0,1,17.94,0L261.12,523.56a12.49,12.49,0,0,1,0,17.74,12.23,12.23,0,0,1-9.07,3.75Z" transform="translate(-57.08 -45.54)"></path><path class="cls-1" d="M165.7,527.11c0,.93,0,1.86-.13,2.78s-.23,1.85-.41,2.76-.41,1.81-.68,2.7a27.25,27.25,0,0,1-.94,2.62,26.31,26.31,0,0,1-1.19,2.52,27.43,27.43,0,0,1-1.43,2.39c-.52.77-1.07,1.52-1.66,2.24s-1.21,1.4-1.87,2.06-1.35,1.28-2.06,1.87-1.47,1.14-2.24,1.66-1.57,1-2.39,1.43a26.31,26.31,0,0,1-2.52,1.19,27.25,27.25,0,0,1-2.62.94,27.53,27.53,0,0,1-2.71.68c-.91.18-1.83.32-2.75.41s-1.85.13-2.78.13-1.86,0-2.79-.13-1.84-.23-2.75-.41-1.81-.41-2.7-.68a27.43,27.43,0,0,1-2.63-.94,26.31,26.31,0,0,1-2.52-1.19c-.82-.44-1.61-.91-2.39-1.43s-1.51-1.07-2.23-1.66-1.41-1.21-2.07-1.87-1.28-1.34-1.87-2.06-1.14-1.47-1.66-2.24-1-1.57-1.43-2.39a26.31,26.31,0,0,1-1.19-2.52,27.25,27.25,0,0,1-.94-2.62c-.27-.89-.5-1.79-.68-2.7s-.31-1.83-.41-2.76-.13-1.85-.13-2.78,0-1.86.13-2.78.23-1.85.41-2.76.41-1.81.68-2.7a27.25,27.25,0,0,1,.94-2.62,26.31,26.31,0,0,1,1.19-2.52c.44-.82.92-1.62,1.43-2.39s1.07-1.52,1.66-2.24,1.22-1.4,1.87-2.06,1.35-1.28,2.07-1.87a27.42,27.42,0,0,1,2.23-1.66,26.46,26.46,0,0,1,2.39-1.43q1.23-.66,2.52-1.2c.86-.35,1.74-.66,2.63-.93s1.79-.5,2.7-.68,1.83-.32,2.75-.41,1.86-.14,2.79-.14,1.85,0,2.78.14,1.84.23,2.75.41a27.53,27.53,0,0,1,2.71.68c.89.27,1.76.58,2.62.93s1.7.76,2.52,1.2a26.46,26.46,0,0,1,2.39,1.43,27.57,27.57,0,0,1,2.24,1.66c.71.59,1.4,1.21,2.06,1.87s1.28,1.34,1.87,2.06,1.14,1.47,1.66,2.24a27.43,27.43,0,0,1,1.43,2.39,26.31,26.31,0,0,1,1.19,2.52,27.25,27.25,0,0,1,.94,2.62c.27.89.5,1.79.68,2.7s.32,1.83.41,2.76.13,1.85.13,2.78Z" transform="translate(-57.08 -45.54)"></path><path class="cls-1" d="M251.85,654.25a12.71,12.71,0,0,1-9.06-3.94L128.25,536a12.61,12.61,0,0,1,17.94-17.74L260.53,632.57a12.73,12.73,0,0,1,0,17.94,12.47,12.47,0,0,1-8.68,3.74Z" transform="translate(-57.08 -45.54)"></path><path class="cls-1" d="M493.75,574.42a12.48,12.48,0,0,1-9.07-3.75,12.86,12.86,0,0,1,0-17.74L627.21,410.61a12.16,12.16,0,0,1,17.74,0,12.86,12.86,0,0,1,0,17.74L502.62,570.87a12.68,12.68,0,0,1-8.87,3.55Z" transform="translate(-57.08 -45.54)"></path><path class="cls-1" d="M492.37,674a11.9,11.9,0,0,1-8.88-3.54,12.75,12.75,0,0,1,0-17.94L562.94,573c4.73-4.73,12.82-4.73,17.94,0a13.36,13.36,0,0,1,0,18.13l-79.45,79.25a11.83,11.83,0,0,1-9.06,3.54Z" transform="translate(-57.08 -45.54)"></path><path class="cls-2" d="M899.94,380.48c-5.36,3-10.83,7.93-10.83,22.33,0,11.22,3.63,17.35,12.94,21.87a56.11,56.11,0,0,0,20.46,4.91l209.46.82c36.4,0,90.71,22.47,90.71,84.39s-50.47,84.4-84.41,84.4H831.5V541.58H1138a40.84,40.84,0,0,0,16.2-4.45c5.36-3,10.83-7.94,10.83-22.33,0-11.22-3.62-17.36-12.94-21.87s-19.89-4.89-20.48-4.91l-209.32-.93v.11c-36.51,0-90.83-22.48-90.83-84.4S882,318.41,915.9,318.41h306.78V376H916.16A40.93,40.93,0,0,0,900,380.48Zm461.84,221.38h-57.06V324.64h57.06V601.86Zm140-59h333.57v57.62H1444.14v-280h57.63V542.81Zm782.69-195.6c22.53,22.34,22.34,54.64,22.06,103.53q0,5.46-.06,11.32c-.11,29-.19,50-3.23,67.66-2.6,15.08-8.59,36.81-30.53,51.43-27.79,18.52-69.3,18.94-160.23,19.85-14.2.14-27.3.25-39.38.25-72,0-108.27-3.82-131.42-26.81-24.1-24-24-59.21-23.77-112.59.22-59.56.36-95.51,30.55-117.83,26-19.26,63.89-19.76,146.78-20.88l16.54-.22c103.31-1.48,146.07-2.09,172.69,24.3Zm-35.17,103.19c.16-28.09.33-57.15-5.12-62.55-6.77-6.71-37.12-8.26-77.53-8.26-16.62,0-35,.27-54,.54l-16.59.23c-59.39.79-102.29,1.37-113.53,9.67-7.09,5.24-7.2,36.19-7.34,72-.12,33.28-.24,64.71,6.88,71.79,11.18,11.1,71.52,10.5,129.88,9.92,67-.67,115.43-1.15,129.06-10.24,8-5.35,8.13-33.17,8.27-71.68,0-4,0-7.76.06-11.44Z" transform="translate(-57.08 -45.54)"></path></svg> 