<?xml version="1.0" encoding="UTF-8"?> <svg xmlns="http://www.w3.org/2000/svg" xmlns:xlink="http://www.w3.org/1999/xlink" id="Layer_1" data-name="Layer 1" viewBox="0 0 2249.49 821.2"><defs><style>.cls-1{fill:none;}.cls-2{clip-path:url(#clip-path);}.cls-3{fill:#fff;}</style><clipPath id="clip-path" transform="translate(-73.76 -73.75)"><rect class="cls-1" width="2397" height="968.7"></rect></clipPath></defs><g class="cls-2"><path class="cls-3" d="M142.56,297.87c0,.93-.05,1.86-.14,2.78s-.23,1.85-.41,2.76-.4,1.81-.67,2.7-.59,1.77-.94,2.62-.76,1.7-1.19,2.52a27.53,27.53,0,0,1-1.44,2.39,28.3,28.3,0,0,1-7.83,7.83,27.53,27.53,0,0,1-2.39,1.44c-.82.43-1.66.83-2.52,1.19s-1.73.67-2.62.94-1.79.49-2.7.67-1.83.32-2.76.41-1.85.14-2.78.14-1.86-.05-2.78-.14-1.85-.23-2.76-.41-1.81-.4-2.7-.67-1.76-.59-2.62-.94-1.7-.76-2.52-1.19a29.22,29.22,0,0,1-4.63-3.1,28.3,28.3,0,0,1-5.59-6.17,27.53,27.53,0,0,1-1.44-2.39c-.43-.82-.83-1.66-1.19-2.52s-.67-1.73-.94-2.62-.49-1.79-.67-2.7-.32-1.83-.41-2.76-.14-1.85-.14-2.78,0-1.85.14-2.78.23-1.84.41-2.76.4-1.81.67-2.7.59-1.76.94-2.62.76-1.7,1.19-2.52.92-1.61,1.44-2.39a27.57,27.57,0,0,1,1.66-2.24c.59-.71,1.21-1.4,1.87-2.06a26.11,26.11,0,0,1,2.06-1.87c.72-.59,1.47-1.14,2.24-1.66a27.43,27.43,0,0,1,2.39-1.43,26.31,26.31,0,0,1,2.52-1.19,27.25,27.25,0,0,1,2.62-.94c.89-.27,1.79-.5,2.7-.68s1.83-.32,2.76-.41,1.85-.13,2.78-.13,1.86,0,2.78.13,1.85.23,2.76.41,1.81.41,2.7.68a28.81,28.81,0,0,1,5.14,2.13,27.43,27.43,0,0,1,2.39,1.43c.78.52,1.52,1.07,2.24,1.66a26.11,26.11,0,0,1,2.06,1.87c.66.66,1.28,1.35,1.87,2.06a27.57,27.57,0,0,1,1.66,2.24c.52.78,1,1.57,1.44,2.39s.83,1.66,1.19,2.52.67,1.73.94,2.62.49,1.79.67,2.7.32,1.83.41,2.76S142.56,296.94,142.56,297.87Z" transform="translate(-73.76 -73.75)"></path><path class="cls-3" d="M130.53,393.87c0,.93,0,1.86-.13,2.78s-.23,1.85-.41,2.76-.41,1.81-.68,2.7a27.25,27.25,0,0,1-.94,2.62,26.31,26.31,0,0,1-1.19,2.52,27.43,27.43,0,0,1-1.43,2.39c-.52.77-1.07,1.52-1.66,2.24s-1.21,1.4-1.87,2.06-1.35,1.28-2.07,1.87a25.78,25.78,0,0,1-2.23,1.66,28.44,28.44,0,0,1-4.91,2.62,27.25,27.25,0,0,1-2.62.94,27.53,27.53,0,0,1-2.71.68c-.91.18-1.83.32-2.75.41s-1.86.14-2.79.14-1.85-.05-2.78-.14-1.84-.23-2.75-.41A27.53,27.53,0,0,1,93.9,421a27.25,27.25,0,0,1-2.62-.94,28.44,28.44,0,0,1-4.91-2.62,25.78,25.78,0,0,1-2.23-1.66c-.72-.59-1.41-1.21-2.07-1.87s-1.28-1.34-1.87-2.06-1.14-1.47-1.66-2.24a27.43,27.43,0,0,1-1.43-2.39,26.31,26.31,0,0,1-1.19-2.52,27.25,27.25,0,0,1-.94-2.62c-.27-.89-.5-1.79-.68-2.7s-.32-1.83-.41-2.76-.13-1.85-.13-2.78,0-1.86.13-2.78.23-1.85.41-2.76.41-1.81.68-2.7a27.25,27.25,0,0,1,.94-2.62,26.31,26.31,0,0,1,1.19-2.52,27.43,27.43,0,0,1,1.43-2.39c.52-.77,1.07-1.52,1.66-2.24s1.21-1.4,1.87-2.06,1.35-1.28,2.07-1.87a25.78,25.78,0,0,1,2.23-1.66,28.44,28.44,0,0,1,4.91-2.62,27.25,27.25,0,0,1,2.62-.94,27.53,27.53,0,0,1,2.71-.68c.91-.18,1.83-.32,2.75-.41s1.86-.14,2.78-.14,1.86,0,2.79.14,1.84.23,2.75.41a27.53,27.53,0,0,1,2.71.68,27.25,27.25,0,0,1,2.62.94,28.44,28.44,0,0,1,4.91,2.62,25.78,25.78,0,0,1,2.23,1.66c.72.59,1.41,1.21,2.07,1.87s1.28,1.34,1.87,2.06,1.14,1.47,1.66,2.24a27.43,27.43,0,0,1,1.43,2.39,26.31,26.31,0,0,1,1.19,2.52,27.25,27.25,0,0,1,.94,2.62c.27.89.5,1.79.68,2.7s.32,1.83.41,2.76S130.53,392.94,130.53,393.87Z" transform="translate(-73.76 -73.75)"></path><path class="cls-3" d="M177.45,214.49c0,.93,0,1.86-.13,2.78s-.23,1.85-.41,2.76-.41,1.81-.68,2.7a27.25,27.25,0,0,1-.94,2.62,26.31,26.31,0,0,1-1.19,2.52c-.44.82-.92,1.62-1.43,2.39s-1.07,1.52-1.66,2.24-1.21,1.4-1.87,2.06-1.35,1.28-2.07,1.87a27.42,27.42,0,0,1-2.23,1.66,26.46,26.46,0,0,1-2.39,1.43q-1.23.66-2.52,1.2c-.86.35-1.74.66-2.63.93a27.33,27.33,0,0,1-2.7.68c-.91.18-1.83.32-2.75.41s-1.86.14-2.79.14-1.85,0-2.78-.14-1.84-.23-2.75-.41a27.53,27.53,0,0,1-2.71-.68c-.89-.27-1.76-.58-2.62-.93s-1.7-.76-2.52-1.2a26.46,26.46,0,0,1-2.39-1.43,25.78,25.78,0,0,1-2.23-1.66c-.72-.59-1.41-1.21-2.07-1.87s-1.28-1.34-1.87-2.06-1.14-1.47-1.66-2.24a27.43,27.43,0,0,1-1.43-2.39,26.31,26.31,0,0,1-1.19-2.52,27.25,27.25,0,0,1-.94-2.62c-.27-.89-.5-1.79-.68-2.7s-.32-1.83-.41-2.76-.13-1.85-.13-2.78,0-1.86.13-2.78.23-1.85.41-2.76.41-1.81.68-2.7a27.25,27.25,0,0,1,.94-2.62,26.31,26.31,0,0,1,1.19-2.52,27.43,27.43,0,0,1,1.43-2.39c.52-.77,1.07-1.52,1.66-2.24s1.21-1.4,1.87-2.06,1.35-1.28,2.07-1.87,1.46-1.14,2.23-1.66a28.44,28.44,0,0,1,4.91-2.62,27.25,27.25,0,0,1,2.62-.94,27.53,27.53,0,0,1,2.71-.68c.91-.18,1.83-.32,2.75-.41s1.85-.14,2.78-.14,1.86.05,2.79.14,1.84.23,2.75.41a28.9,28.9,0,0,1,5.33,1.62,28.44,28.44,0,0,1,4.91,2.62c.77.52,1.51,1.07,2.23,1.66s1.41,1.21,2.07,1.87,1.28,1.34,1.87,2.06,1.14,1.47,1.66,2.24,1,1.57,1.43,2.39a26.31,26.31,0,0,1,1.19,2.52,27.25,27.25,0,0,1,.94,2.62c.27.89.5,1.79.68,2.7s.31,1.83.41,2.76S177.45,213.56,177.45,214.49Z" transform="translate(-73.76 -73.75)"></path><path class="cls-3" d="M538.22,266.14c0,.93-.05,1.85-.14,2.78a25.69,25.69,0,0,1-.41,2.75,27.49,27.49,0,0,1-.67,2.71c-.27.89-.59,1.76-.94,2.62s-.75,1.7-1.19,2.52-.92,1.61-1.44,2.39a27.29,27.29,0,0,1-1.65,2.23c-.59.72-1.22,1.41-1.88,2.07s-1.34,1.28-2.06,1.87-1.46,1.14-2.24,1.66-1.57,1-2.39,1.43-1.66.83-2.52,1.19a26.31,26.31,0,0,1-2.62.94c-.89.27-1.79.49-2.7.68s-1.83.31-2.76.4a27.67,27.67,0,0,1-5.56,0c-.93-.09-1.85-.22-2.76-.4s-1.81-.41-2.7-.68a27.25,27.25,0,0,1-2.62-.94c-.86-.36-1.7-.75-2.52-1.19s-1.62-.92-2.39-1.43-1.52-1.07-2.24-1.66-1.41-1.22-2.06-1.87-1.28-1.35-1.87-2.07a27.42,27.42,0,0,1-1.66-2.23c-.52-.78-1-1.57-1.44-2.39s-.83-1.66-1.19-2.52-.66-1.73-.93-2.62a27.53,27.53,0,0,1-.68-2.71c-.18-.91-.32-1.83-.41-2.75s-.14-1.85-.14-2.78.05-1.86.14-2.79.23-1.84.41-2.75.41-1.81.68-2.7.58-1.77.93-2.63.76-1.69,1.19-2.51a27.53,27.53,0,0,1,1.44-2.39,25.93,25.93,0,0,1,1.66-2.24c.59-.72,1.21-1.41,1.87-2.07s1.34-1.28,2.06-1.87,1.47-1.14,2.24-1.66,1.57-1,2.39-1.43,1.66-.83,2.52-1.19,1.73-.67,2.62-.94,1.79-.49,2.7-.67a25.5,25.5,0,0,1,2.76-.41c.92-.09,1.85-.14,2.78-.14s1.86.05,2.78.14a25.5,25.5,0,0,1,2.76.41c.91.18,1.81.4,2.7.67s1.77.59,2.62.94,1.7.75,2.52,1.19,1.62.92,2.39,1.43,1.52,1.07,2.24,1.66,1.41,1.22,2.06,1.87,1.29,1.35,1.88,2.07a25.82,25.82,0,0,1,1.65,2.24,27.53,27.53,0,0,1,1.44,2.39c.44.82.83,1.65,1.19,2.51s.67,1.74.94,2.63.49,1.79.67,2.7a25.69,25.69,0,0,1,.41,2.75C538.17,264.28,538.22,265.21,538.22,266.14Z" transform="translate(-73.76 -73.75)"></path><path class="cls-3" d="M700.66,321.72c0,.93,0,1.86-.13,2.79s-.23,1.84-.41,2.75-.41,1.81-.68,2.7a27.43,27.43,0,0,1-.94,2.63,26.14,26.14,0,0,1-1.19,2.51c-.44.82-.92,1.62-1.43,2.39s-1.07,1.52-1.66,2.24-1.21,1.41-1.87,2.07-1.35,1.28-2.07,1.87-1.46,1.14-2.23,1.66-1.57,1-2.39,1.43-1.66.83-2.52,1.19-1.74.67-2.62.94-1.8.49-2.71.67a25.69,25.69,0,0,1-2.75.41c-.93.09-1.86.14-2.79.14s-1.85-.05-2.78-.14a25.69,25.69,0,0,1-2.75-.41,27.49,27.49,0,0,1-2.71-.67c-.89-.27-1.76-.59-2.62-.94s-1.7-.75-2.52-1.19-1.61-.92-2.39-1.43-1.52-1.07-2.23-1.66-1.41-1.22-2.07-1.87-1.28-1.35-1.87-2.07-1.14-1.46-1.66-2.24a27.43,27.43,0,0,1-1.43-2.39,26.14,26.14,0,0,1-1.19-2.51,27.43,27.43,0,0,1-.94-2.63c-.27-.89-.5-1.79-.68-2.7s-.32-1.83-.41-2.75-.13-1.86-.13-2.79,0-1.85.13-2.78.23-1.84.41-2.75a27.53,27.53,0,0,1,.68-2.71,27.25,27.25,0,0,1,.94-2.62,26.31,26.31,0,0,1,1.19-2.52c.44-.82.91-1.61,1.43-2.39s1.07-1.51,1.66-2.23,1.21-1.41,1.87-2.07,1.35-1.28,2.07-1.87,1.46-1.14,2.23-1.66,1.57-1,2.39-1.43a26.31,26.31,0,0,1,2.52-1.19,27.25,27.25,0,0,1,2.62-.94c.89-.27,1.79-.49,2.71-.68s1.83-.31,2.75-.4a27.77,27.77,0,0,1,5.57,0c.92.09,1.84.22,2.75.4s1.82.41,2.71.68,1.76.58,2.62.94a26.31,26.31,0,0,1,2.52,1.19c.82.44,1.61.92,2.39,1.43s1.52,1.07,2.23,1.66,1.41,1.22,2.07,1.87,1.28,1.35,1.87,2.07,1.14,1.46,1.66,2.23,1,1.57,1.43,2.39a26.31,26.31,0,0,1,1.19,2.52,27.25,27.25,0,0,1,.94,2.62,27.53,27.53,0,0,1,.68,2.71c.18.91.31,1.83.41,2.75S700.66,320.79,700.66,321.72Z" transform="translate(-73.76 -73.75)"></path><path class="cls-3" d="M689,436.25a25.75,25.75,0,0,1-.14,2.78c-.09.93-.22,1.85-.4,2.76s-.41,1.81-.68,2.7a27.25,27.25,0,0,1-.94,2.62c-.36.86-.75,1.7-1.19,2.52s-.92,1.62-1.43,2.39-1.07,1.52-1.66,2.24-1.22,1.41-1.87,2.06-1.35,1.28-2.07,1.87a25.93,25.93,0,0,1-2.24,1.66,25,25,0,0,1-2.38,1.43q-1.23.66-2.52,1.2c-.86.35-1.74.66-2.63.93s-1.79.5-2.7.68-1.83.32-2.75.41-1.86.14-2.79.14-1.85-.05-2.78-.14-1.84-.23-2.76-.41-1.81-.41-2.7-.68-1.76-.58-2.62-.93-1.7-.76-2.52-1.2a25.15,25.15,0,0,1-2.39-1.43,27.57,27.57,0,0,1-2.24-1.66c-.71-.59-1.4-1.21-2.06-1.87a26.11,26.11,0,0,1-1.87-2.06c-.59-.72-1.14-1.47-1.66-2.24a27.43,27.43,0,0,1-1.43-2.39,26.31,26.31,0,0,1-1.19-2.52,27.25,27.25,0,0,1-.94-2.62c-.27-.89-.5-1.79-.68-2.7s-.32-1.83-.41-2.76-.13-1.85-.13-2.78,0-1.86.13-2.78.23-1.84.41-2.76.41-1.81.68-2.7a27.25,27.25,0,0,1,.94-2.62,26.31,26.31,0,0,1,1.19-2.52,27.43,27.43,0,0,1,1.43-2.39c.52-.77,1.07-1.52,1.66-2.24s1.21-1.4,1.87-2.06,1.35-1.28,2.06-1.87,1.47-1.14,2.24-1.66a27.43,27.43,0,0,1,2.39-1.43,26.31,26.31,0,0,1,2.52-1.19,27.25,27.25,0,0,1,2.62-.94c.89-.27,1.79-.5,2.7-.68s1.84-.32,2.76-.41,1.85-.13,2.78-.13,1.86,0,2.79.13,1.84.23,2.75.41,1.81.41,2.7.68a27.43,27.43,0,0,1,2.63.94,26.31,26.31,0,0,1,2.52,1.19,27.26,27.26,0,0,1,2.38,1.43c.78.52,1.52,1.07,2.24,1.66s1.41,1.21,2.07,1.87,1.28,1.34,1.87,2.06,1.14,1.47,1.66,2.24,1,1.57,1.43,2.39.83,1.66,1.19,2.52a27.25,27.25,0,0,1,.94,2.62c.27.89.49,1.79.68,2.7s.31,1.83.4,2.76A25.75,25.75,0,0,1,689,436.25Z" transform="translate(-73.76 -73.75)"></path><path class="cls-3" d="M616.68,610.31a25.75,25.75,0,0,1-.14,2.78c-.09.93-.22,1.84-.4,2.76s-.41,1.81-.68,2.7a27.25,27.25,0,0,1-.94,2.62c-.36.86-.75,1.7-1.19,2.52s-.92,1.62-1.43,2.39-1.07,1.52-1.66,2.24-1.22,1.4-1.87,2.06-1.35,1.28-2.07,1.87-1.46,1.14-2.24,1.66a27.43,27.43,0,0,1-2.39,1.43,26.14,26.14,0,0,1-2.51,1.19,27.43,27.43,0,0,1-2.63.94c-.89.27-1.79.5-2.7.68s-1.83.32-2.75.41-1.86.13-2.79.13-1.85,0-2.78-.13-1.84-.23-2.76-.41-1.81-.41-2.7-.68a27.25,27.25,0,0,1-2.62-.94,26.31,26.31,0,0,1-2.52-1.19,27.43,27.43,0,0,1-2.39-1.43c-.77-.52-1.52-1.07-2.24-1.66s-1.4-1.21-2.06-1.87-1.28-1.35-1.87-2.06-1.14-1.47-1.66-2.24a25.15,25.15,0,0,1-1.43-2.39,26.31,26.31,0,0,1-1.19-2.52,27.25,27.25,0,0,1-.94-2.62c-.27-.89-.5-1.79-.68-2.7s-.32-1.83-.41-2.76-.14-1.85-.14-2.78.05-1.86.14-2.78.23-1.85.41-2.76.41-1.81.68-2.7a28.81,28.81,0,0,1,2.13-5.14,25.15,25.15,0,0,1,1.43-2.39c.52-.77,1.07-1.52,1.66-2.24a26.11,26.11,0,0,1,1.87-2.06c.66-.66,1.34-1.28,2.06-1.87a29.22,29.22,0,0,1,4.63-3.1c.82-.43,1.66-.83,2.52-1.19s1.73-.66,2.62-.93,1.79-.5,2.7-.68,1.83-.32,2.76-.41,1.85-.14,2.78-.14,1.86.05,2.79.14,1.84.23,2.75.41,1.81.41,2.7.68,1.77.58,2.63.93,1.69.76,2.51,1.19a27.53,27.53,0,0,1,2.39,1.44,25.93,25.93,0,0,1,2.24,1.66c.72.59,1.41,1.21,2.07,1.87s1.28,1.34,1.87,2.06,1.14,1.47,1.66,2.24,1,1.57,1.43,2.39.83,1.66,1.19,2.52a26.31,26.31,0,0,1,.94,2.62c.27.89.49,1.79.68,2.7s.31,1.83.4,2.76A25.75,25.75,0,0,1,616.68,610.31Z" transform="translate(-73.76 -73.75)"></path><path class="cls-3" d="M574.89,139.78c0,.93,0,1.86-.14,2.78s-.23,1.85-.41,2.76-.41,1.81-.68,2.7-.58,1.77-.93,2.62-.76,1.7-1.19,2.52a29.22,29.22,0,0,1-3.1,4.63,28.81,28.81,0,0,1-3.93,3.93,29.22,29.22,0,0,1-4.63,3.1c-.82.43-1.66.83-2.52,1.19s-1.73.66-2.62.93-1.79.5-2.7.68-1.83.32-2.76.41-1.85.14-2.78.14-1.86,0-2.78-.14-1.85-.23-2.76-.41-1.81-.41-2.7-.68-1.77-.58-2.62-.93-1.7-.76-2.52-1.19a27.53,27.53,0,0,1-2.39-1.44,28.05,28.05,0,0,1-4.3-3.53,26.24,26.24,0,0,1-1.88-2.06,30.1,30.1,0,0,1-3.09-4.63c-.44-.82-.83-1.66-1.19-2.52s-.67-1.73-.94-2.62-.49-1.79-.67-2.7a25.5,25.5,0,0,1-.41-2.76c-.09-.92-.14-1.85-.14-2.78s0-1.86.14-2.78a25.87,25.87,0,0,1,.41-2.76c.18-.91.4-1.81.67-2.7s.59-1.76.94-2.62.75-1.7,1.19-2.52a30.1,30.1,0,0,1,3.09-4.63c.59-.71,1.22-1.4,1.88-2.06a26.11,26.11,0,0,1,2.06-1.87c.72-.59,1.46-1.14,2.24-1.66a27.43,27.43,0,0,1,2.39-1.43,28.81,28.81,0,0,1,5.14-2.13c.89-.27,1.79-.5,2.7-.68s1.83-.32,2.76-.41,1.85-.13,2.78-.13,1.86,0,2.78.13,1.85.23,2.76.41,1.81.41,2.7.68a27.25,27.25,0,0,1,2.62.94,26.31,26.31,0,0,1,2.52,1.19,27.43,27.43,0,0,1,2.39,1.43c.77.52,1.52,1.07,2.24,1.66a26.11,26.11,0,0,1,2.06,1.87c.66.66,1.28,1.35,1.87,2.06a29.22,29.22,0,0,1,3.1,4.63c.43.82.83,1.66,1.19,2.52a27.18,27.18,0,0,1,.93,2.62c.27.89.5,1.79.68,2.7s.32,1.83.41,2.76S574.89,138.85,574.89,139.78Z" transform="translate(-73.76 -73.75)"></path><path class="cls-3" d="M647,227.11a25.88,25.88,0,0,1-.14,2.78c-.09.92-.22,1.84-.4,2.75s-.41,1.82-.68,2.71a27.25,27.25,0,0,1-.94,2.62c-.36.86-.75,1.7-1.19,2.52s-.92,1.61-1.43,2.39-1.07,1.51-1.66,2.23-1.22,1.41-1.87,2.07-1.35,1.28-2.07,1.87-1.46,1.14-2.24,1.66-1.57,1-2.39,1.43-1.65.83-2.51,1.19a27.43,27.43,0,0,1-2.63.94c-.89.27-1.79.49-2.7.68s-1.83.31-2.76.4a27.67,27.67,0,0,1-5.56,0c-.93-.09-1.84-.22-2.76-.4s-1.81-.41-2.7-.68a27.25,27.25,0,0,1-2.62-.94c-.86-.36-1.7-.75-2.52-1.19s-1.62-.92-2.39-1.43-1.52-1.07-2.24-1.66-1.4-1.22-2.06-1.87-1.28-1.35-1.87-2.07-1.14-1.46-1.66-2.23a28.44,28.44,0,0,1-2.62-4.91,27.25,27.25,0,0,1-.94-2.62,27.53,27.53,0,0,1-.68-2.71c-.18-.91-.32-1.83-.41-2.75s-.14-1.85-.14-2.78,0-1.86.14-2.79.23-1.84.41-2.75.41-1.81.68-2.7a27.43,27.43,0,0,1,.94-2.63,26.14,26.14,0,0,1,1.19-2.51,25.15,25.15,0,0,1,1.43-2.39c.52-.78,1.07-1.52,1.66-2.24s1.21-1.41,1.87-2.07,1.34-1.28,2.06-1.87,1.47-1.14,2.24-1.66,1.57-1,2.39-1.43,1.66-.83,2.52-1.19,1.73-.67,2.62-.94,1.79-.49,2.7-.67a25.87,25.87,0,0,1,2.76-.41c.93-.09,1.85-.14,2.78-.14s1.86.05,2.78.14a25.5,25.5,0,0,1,2.76.41c.91.18,1.81.4,2.7.67s1.77.59,2.63.94,1.69.75,2.51,1.19,1.62.92,2.39,1.43,1.52,1.07,2.24,1.66,1.41,1.22,2.07,1.87,1.28,1.35,1.87,2.07,1.14,1.46,1.66,2.24,1,1.57,1.43,2.39.83,1.65,1.19,2.51a27.43,27.43,0,0,1,.94,2.63c.27.89.49,1.79.68,2.7s.31,1.83.4,2.75A26.06,26.06,0,0,1,647,227.11Z" transform="translate(-73.76 -73.75)"></path><path class="cls-3" d="M386.62,319.16c0,.93-.05,1.86-.14,2.78s-.23,1.85-.41,2.76-.4,1.81-.67,2.7-.59,1.77-.94,2.62-.76,1.7-1.19,2.52a29.22,29.22,0,0,1-3.1,4.63,28.81,28.81,0,0,1-3.93,3.93,27.57,27.57,0,0,1-2.24,1.66,25.15,25.15,0,0,1-2.39,1.43q-1.23.66-2.52,1.2c-.86.35-1.73.66-2.62.93s-1.79.5-2.7.68-1.83.32-2.76.41-1.85.14-2.78.14-1.86-.05-2.78-.14-1.85-.23-2.76-.41-1.81-.41-2.7-.68-1.76-.58-2.62-.93-1.7-.76-2.52-1.2a25.15,25.15,0,0,1-2.39-1.43,27.57,27.57,0,0,1-2.24-1.66,28.81,28.81,0,0,1-3.93-3.93,29.22,29.22,0,0,1-3.1-4.63c-.43-.82-.83-1.66-1.19-2.52s-.67-1.73-.94-2.62-.49-1.79-.67-2.7-.32-1.83-.41-2.76-.14-1.85-.14-2.78.05-1.86.14-2.78.23-1.84.41-2.76.4-1.81.67-2.7.59-1.76.94-2.62.76-1.7,1.19-2.52a29.22,29.22,0,0,1,3.1-4.63c.59-.71,1.21-1.4,1.87-2.06a26.11,26.11,0,0,1,2.06-1.87c.72-.59,1.47-1.14,2.24-1.66a27.43,27.43,0,0,1,2.39-1.43,26.31,26.31,0,0,1,2.52-1.19A27.25,27.25,0,0,1,350,292c.89-.27,1.79-.5,2.7-.68s1.83-.32,2.76-.41,1.85-.13,2.78-.13,1.86,0,2.78.13,1.85.23,2.76.41,1.81.41,2.7.68a27.25,27.25,0,0,1,2.62.94,26.31,26.31,0,0,1,2.52,1.19,27.43,27.43,0,0,1,2.39,1.43c.77.52,1.52,1.07,2.24,1.66a26.11,26.11,0,0,1,2.06,1.87c.66.66,1.28,1.35,1.87,2.06a29.22,29.22,0,0,1,3.1,4.63c.43.82.83,1.66,1.19,2.52s.67,1.73.94,2.62.49,1.79.67,2.7.32,1.83.41,2.76S386.62,318.23,386.62,319.16Z" transform="translate(-73.76 -73.75)"></path><path class="cls-3" d="M501.55,102.13a25.75,25.75,0,0,1-.14,2.78c-.09.93-.22,1.85-.4,2.76s-.41,1.81-.68,2.7a26.31,26.31,0,0,1-.94,2.62c-.36.86-.75,1.7-1.19,2.52s-.92,1.62-1.43,2.39-1.07,1.52-1.66,2.24-1.22,1.41-1.87,2.06-1.35,1.28-2.07,1.87a25.93,25.93,0,0,1-2.24,1.66c-.77.52-1.57,1-2.38,1.44s-1.66.83-2.52,1.19-1.74.66-2.63.93-1.79.5-2.7.68-1.83.32-2.75.41-1.86.14-2.79.14-1.85-.05-2.78-.14-1.84-.23-2.76-.41-1.81-.41-2.7-.68-1.76-.58-2.62-.93-1.7-.76-2.52-1.19a29.22,29.22,0,0,1-4.63-3.1c-.72-.59-1.4-1.21-2.06-1.87a26.11,26.11,0,0,1-1.87-2.06c-.59-.72-1.14-1.47-1.66-2.24a27.43,27.43,0,0,1-1.43-2.39,28.81,28.81,0,0,1-2.13-5.14c-.27-.89-.5-1.79-.68-2.7s-.32-1.83-.41-2.76-.14-1.85-.14-2.78.05-1.86.14-2.78.23-1.84.41-2.76.41-1.81.68-2.7a27.25,27.25,0,0,1,.94-2.62,26.31,26.31,0,0,1,1.19-2.52,27.43,27.43,0,0,1,1.43-2.39c.52-.77,1.07-1.52,1.66-2.24s1.21-1.4,1.87-2.06,1.34-1.28,2.06-1.87,1.47-1.14,2.24-1.66a27.43,27.43,0,0,1,2.39-1.43,26.31,26.31,0,0,1,2.52-1.19,27.25,27.25,0,0,1,2.62-.94c.89-.27,1.79-.5,2.7-.68s1.84-.32,2.76-.41,1.85-.13,2.78-.13,1.86,0,2.79.13,1.84.23,2.75.41,1.81.41,2.7.68a27.43,27.43,0,0,1,2.63.94,25.05,25.05,0,0,1,2.51,1.19,27.43,27.43,0,0,1,2.39,1.43c.78.52,1.52,1.07,2.24,1.66s1.41,1.21,2.07,1.87,1.28,1.35,1.87,2.06,1.14,1.47,1.66,2.24,1,1.57,1.43,2.39.83,1.66,1.19,2.52a27.25,27.25,0,0,1,.94,2.62c.27.89.49,1.79.68,2.7s.31,1.83.4,2.76A25.75,25.75,0,0,1,501.55,102.13Z" transform="translate(-73.76 -73.75)"></path><path class="cls-3" d="M256.31,139.78c0,.93-.05,1.86-.14,2.78s-.23,1.85-.41,2.76-.4,1.81-.67,2.7-.59,1.77-.94,2.62-.76,1.7-1.19,2.52a29.22,29.22,0,0,1-3.1,4.63,28.3,28.3,0,0,1-6.17,5.59,27.53,27.53,0,0,1-2.39,1.44c-.82.43-1.66.83-2.52,1.19s-1.73.66-2.62.93-1.79.5-2.7.68-1.83.32-2.76.41-1.85.14-2.78.14-1.86,0-2.78-.14-1.85-.23-2.76-.41-1.81-.41-2.7-.68-1.76-.58-2.62-.93-1.7-.76-2.52-1.19a29.22,29.22,0,0,1-4.63-3.1,28.81,28.81,0,0,1-3.93-3.93,29.22,29.22,0,0,1-3.1-4.63c-.43-.82-.83-1.66-1.19-2.52s-.67-1.73-.94-2.62-.49-1.79-.67-2.7-.32-1.83-.41-2.76-.14-1.85-.14-2.78.05-1.86.14-2.78.23-1.84.41-2.76.4-1.81.67-2.7.59-1.76.94-2.62.76-1.7,1.19-2.52a29.22,29.22,0,0,1,3.1-4.63c.59-.71,1.21-1.4,1.87-2.06a26.11,26.11,0,0,1,2.06-1.87c.72-.59,1.47-1.14,2.24-1.66a27.43,27.43,0,0,1,2.39-1.43,26.31,26.31,0,0,1,2.52-1.19,27.25,27.25,0,0,1,2.62-.94c.89-.27,1.79-.5,2.7-.68s1.83-.32,2.76-.41,1.85-.13,2.78-.13,1.86,0,2.78.13,1.85.23,2.76.41,1.81.41,2.7.68a28.81,28.81,0,0,1,5.14,2.13,27.43,27.43,0,0,1,2.39,1.43c.78.52,1.52,1.07,2.24,1.66a26.11,26.11,0,0,1,2.06,1.87c.66.66,1.28,1.35,1.87,2.06a29.22,29.22,0,0,1,3.1,4.63c.43.82.83,1.66,1.19,2.52s.67,1.73.94,2.62.49,1.79.67,2.7.32,1.83.41,2.76S256.31,138.85,256.31,139.78Z" transform="translate(-73.76 -73.75)"></path><path class="cls-3" d="M268.93,830.1a12.41,12.41,0,0,1-12.62-12.42V468.38l-136-146.66a12.9,12.9,0,0,1,.4-17.93,12.57,12.57,0,0,1,17.94.78L278.19,455a12,12,0,0,1,3.35,8.28V817.48A12.33,12.33,0,0,1,268.93,830.1Z" transform="translate(-73.76 -73.75)"></path><path class="cls-3" d="M344.43,895a12.62,12.62,0,0,1-12.62-12.81v-467L140.19,223.56a12.55,12.55,0,1,1,17.75-17.74L353.3,401.16a12.53,12.53,0,0,1,3.75,8.87V882.14A12.88,12.88,0,0,1,344.43,895Z" transform="translate(-73.76 -73.75)"></path><path class="cls-3" d="M428.61,895A12.62,12.62,0,0,1,416,882.14V251.55a11.5,11.5,0,0,1,3.75-8.87l94.82-94.82a12.86,12.86,0,0,1,17.74,0,12.49,12.49,0,0,1,0,17.74l-91.07,91.27V882.14A12.74,12.74,0,0,1,428.61,895Z" transform="translate(-73.76 -73.75)"></path><path class="cls-3" d="M509,830.1a12.46,12.46,0,0,1-12.81-12.42V486.52a12.61,12.61,0,0,1,3.74-8.68l164.22-164.2a12.61,12.61,0,1,1,17.94,17.74L521.66,491.84V817.68A12.29,12.29,0,0,1,509,830.1Z" transform="translate(-73.76 -73.75)"></path><path class="cls-3" d="M618.85,389.53a12.15,12.15,0,0,1-8.87-3.35L505.69,281.91A12.69,12.69,0,0,1,523.63,264L627.72,368.05a13.36,13.36,0,0,1,0,18.13A13.13,13.13,0,0,1,618.85,389.53Z" transform="translate(-73.76 -73.75)"></path><path class="cls-3" d="M259.46,332a12.54,12.54,0,0,1-9.07-3.74,13,13,0,0,1,0-18.14L465.67,94.84a12.61,12.61,0,0,1,17.94,17.74L268.33,328.23A13.27,13.27,0,0,1,259.46,332Z" transform="translate(-73.76 -73.75)"></path><path class="cls-3" d="M329.64,261.41a11.68,11.68,0,0,1-8.67-3.75l-88.32-88.31a12.49,12.49,0,0,1,0-17.74,12.86,12.86,0,0,1,17.74,0l88.32,88.31a12.86,12.86,0,0,1,0,17.74A12.52,12.52,0,0,1,329.64,261.41Z" transform="translate(-73.76 -73.75)"></path><path class="cls-3" d="M358.62,107.26c0,.93,0,1.85-.13,2.78s-.23,1.84-.41,2.75a27.53,27.53,0,0,1-.68,2.71,27.25,27.25,0,0,1-.94,2.62,26.31,26.31,0,0,1-1.19,2.52c-.44.82-.91,1.61-1.43,2.39s-1.07,1.52-1.66,2.23-1.21,1.41-1.87,2.07-1.35,1.28-2.06,1.87-1.47,1.14-2.24,1.66-1.57,1-2.39,1.43a26.31,26.31,0,0,1-2.52,1.19,27.25,27.25,0,0,1-2.62.94,27.53,27.53,0,0,1-2.71.68c-.91.18-1.83.31-2.75.41s-1.85.13-2.78.13-1.86,0-2.79-.13-1.84-.23-2.75-.41-1.81-.41-2.7-.68a27.43,27.43,0,0,1-2.63-.94,26.31,26.31,0,0,1-2.52-1.19c-.82-.44-1.61-.92-2.39-1.43s-1.51-1.07-2.23-1.66-1.41-1.21-2.07-1.87-1.28-1.35-1.87-2.07-1.14-1.46-1.66-2.23-1-1.57-1.43-2.39a26.31,26.31,0,0,1-1.19-2.52,27.25,27.25,0,0,1-.94-2.62,27.53,27.53,0,0,1-.68-2.71c-.18-.91-.31-1.83-.41-2.75s-.13-1.85-.13-2.78,0-1.86.13-2.79.23-1.84.41-2.75.41-1.81.68-2.7a28,28,0,0,1,2.13-5.14c.44-.82.92-1.62,1.43-2.39s1.07-1.52,1.66-2.24,1.22-1.41,1.87-2.06,1.35-1.29,2.07-1.88a27.29,27.29,0,0,1,2.23-1.65c.78-.52,1.57-1,2.39-1.44s1.66-.83,2.52-1.19,1.74-.67,2.63-.94,1.79-.49,2.7-.67,1.83-.32,2.75-.41,1.86-.14,2.79-.14,1.85,0,2.78.14,1.84.23,2.75.41a27.49,27.49,0,0,1,2.71.67c.89.27,1.76.59,2.62.94s1.7.75,2.52,1.19,1.61.92,2.39,1.44a27.45,27.45,0,0,1,2.24,1.65c.71.59,1.4,1.22,2.06,1.88a26.11,26.11,0,0,1,1.87,2.06c.59.72,1.14,1.46,1.66,2.24A28.29,28.29,0,0,1,357.4,99c.27.89.5,1.79.68,2.7s.32,1.83.41,2.75S358.62,106.33,358.62,107.26Z" transform="translate(-73.76 -73.75)"></path><path class="cls-3" d="M397.26,193.79a12.42,12.42,0,0,1-8.87-3.74L335,136.63a12.26,12.26,0,0,1,0-17.55,12.75,12.75,0,0,1,17.94,0l53.42,53.42a12.49,12.49,0,0,1,0,17.74A13.48,13.48,0,0,1,397.26,193.79Z" transform="translate(-73.76 -73.75)"></path><path class="cls-3" d="M427,399.59a11.31,11.31,0,0,1-8.87-3.95l-59.93-59.72a12.26,12.26,0,0,1,0-17.55c4.73-4.93,12.81-4.93,17.94,0L435.9,378.3a12.25,12.25,0,0,1,0,17.54A12.4,12.4,0,0,1,427,399.59Z" transform="translate(-73.76 -73.75)"></path><path class="cls-3" d="M536.44,379.09c0,.93,0,1.85-.13,2.78s-.23,1.84-.41,2.75a27.53,27.53,0,0,1-.68,2.71,27.25,27.25,0,0,1-.94,2.62,26.31,26.31,0,0,1-1.19,2.52c-.44.82-.91,1.61-1.43,2.39s-1.07,1.51-1.66,2.23-1.21,1.41-1.87,2.07-1.35,1.28-2.06,1.87-1.47,1.14-2.24,1.66-1.57,1-2.39,1.43-1.66.83-2.52,1.19a27.25,27.25,0,0,1-2.62.94c-.89.27-1.79.49-2.71.68s-1.83.31-2.75.4a27.77,27.77,0,0,1-5.57,0c-.92-.09-1.84-.22-2.75-.4s-1.81-.41-2.7-.68a27.43,27.43,0,0,1-2.63-.94c-.86-.36-1.7-.75-2.52-1.19s-1.61-.92-2.38-1.43-1.52-1.07-2.24-1.66-1.41-1.22-2.07-1.87-1.28-1.35-1.87-2.07-1.14-1.46-1.66-2.23-1-1.57-1.43-2.39-.83-1.66-1.19-2.52a27.25,27.25,0,0,1-.94-2.62c-.27-.89-.49-1.79-.68-2.71s-.31-1.83-.4-2.75a27.77,27.77,0,0,1,0-5.57c.09-.92.22-1.84.4-2.75s.41-1.81.68-2.7a27.43,27.43,0,0,1,.94-2.63c.36-.86.75-1.69,1.19-2.51s.92-1.62,1.43-2.39,1.07-1.52,1.66-2.24,1.22-1.41,1.87-2.07,1.35-1.28,2.07-1.87,1.46-1.14,2.24-1.66,1.56-1,2.38-1.43,1.66-.83,2.52-1.19,1.74-.67,2.63-.94,1.79-.49,2.7-.67a25.69,25.69,0,0,1,2.75-.41c.93-.09,1.86-.14,2.79-.14s1.85.05,2.78.14a25.69,25.69,0,0,1,2.75.41,27.49,27.49,0,0,1,2.71.67c.89.27,1.76.59,2.62.94s1.7.75,2.52,1.19,1.62.92,2.39,1.43,1.52,1.07,2.24,1.66,1.4,1.22,2.06,1.87,1.28,1.35,1.87,2.07,1.14,1.46,1.66,2.24a27.43,27.43,0,0,1,1.43,2.39,26.14,26.14,0,0,1,1.19,2.51,27.43,27.43,0,0,1,.94,2.63c.27.89.5,1.79.68,2.7s.32,1.83.41,2.75S536.44,378.16,536.44,379.09Z" transform="translate(-73.76 -73.75)"></path><path class="cls-3" d="M561.28,444.14a12.28,12.28,0,0,1-8.87-3.95L508.06,396A12.69,12.69,0,0,1,526,378.1l44.35,44.16a12.37,12.37,0,0,1,0,17.93A12.69,12.69,0,0,1,561.28,444.14Z" transform="translate(-73.76 -73.75)"></path><path class="cls-3" d="M545.12,316.2a11.28,11.28,0,0,1-8.87-3.94c-4.93-4.73-4.93-12.81,0-17.94l68.41-68.2a12.61,12.61,0,0,1,17.94,17.74l-68.41,68.4A12.3,12.3,0,0,1,545.12,316.2Z" transform="translate(-73.76 -73.75)"></path><path class="cls-3" d="M268.73,573.25a12.36,12.36,0,0,1-8.87-3.75l-166.78-167a12.25,12.25,0,0,1,0-17.54A12.73,12.73,0,0,1,111,385L277.8,551.76a12.49,12.49,0,0,1,0,17.74A12.19,12.19,0,0,1,268.73,573.25Z" transform="translate(-73.76 -73.75)"></path><path class="cls-3" d="M182.38,555.31a25.75,25.75,0,0,1-.14,2.78c-.09.93-.22,1.85-.4,2.76s-.41,1.81-.68,2.7a26.31,26.31,0,0,1-.94,2.62c-.36.86-.75,1.7-1.19,2.52s-.92,1.62-1.43,2.39-1.07,1.52-1.66,2.24-1.22,1.41-1.87,2.06-1.35,1.28-2.07,1.87a25.93,25.93,0,0,1-2.24,1.66,27.53,27.53,0,0,1-2.39,1.44c-.82.43-1.65.83-2.51,1.19s-1.74.66-2.63.93-1.79.5-2.7.68-1.83.32-2.75.41-1.86.14-2.79.14-1.85-.05-2.78-.14-1.84-.23-2.76-.41-1.81-.41-2.7-.68-1.76-.58-2.62-.93-1.7-.76-2.52-1.19a29.22,29.22,0,0,1-4.63-3.1c-.72-.59-1.4-1.21-2.06-1.87a26.11,26.11,0,0,1-1.87-2.06c-.59-.72-1.14-1.47-1.66-2.24a25.15,25.15,0,0,1-1.43-2.39,28.81,28.81,0,0,1-2.13-5.14c-.27-.89-.5-1.79-.68-2.7s-.32-1.83-.41-2.76-.14-1.85-.14-2.78.05-1.86.14-2.78.23-1.84.41-2.76.41-1.81.68-2.7a27.25,27.25,0,0,1,.94-2.62,26.31,26.31,0,0,1,1.19-2.52,25.15,25.15,0,0,1,1.43-2.39c.52-.77,1.07-1.52,1.66-2.24s1.21-1.4,1.87-2.06,1.34-1.28,2.06-1.87,1.47-1.14,2.24-1.66a27.43,27.43,0,0,1,2.39-1.43,26.31,26.31,0,0,1,2.52-1.19,27.25,27.25,0,0,1,2.62-.94c.89-.27,1.79-.5,2.7-.68s1.84-.32,2.76-.41,1.85-.13,2.78-.13,1.86,0,2.79.13,1.84.23,2.75.41,1.81.41,2.7.68a27.43,27.43,0,0,1,2.63.94,26.14,26.14,0,0,1,2.51,1.19,27.43,27.43,0,0,1,2.39,1.43c.78.52,1.52,1.07,2.24,1.66s1.41,1.21,2.07,1.87,1.28,1.35,1.87,2.06,1.14,1.47,1.66,2.24,1,1.57,1.43,2.39.83,1.66,1.19,2.52a27.25,27.25,0,0,1,.94,2.62c.27.89.49,1.79.68,2.7s.31,1.83.4,2.76A25.75,25.75,0,0,1,182.38,555.31Z" transform="translate(-73.76 -73.75)"></path><path class="cls-3" d="M268.53,682.45a12.75,12.75,0,0,1-9.07-3.94L144.92,564.18a12.61,12.61,0,1,1,17.94-17.74L277.21,660.77a12.75,12.75,0,0,1,0,17.94A12.47,12.47,0,0,1,268.53,682.45Z" transform="translate(-73.76 -73.75)"></path><path class="cls-3" d="M510.42,602.62a12.54,12.54,0,0,1-9.07-3.74,12.87,12.87,0,0,1,0-17.75L643.89,438.81a12.16,12.16,0,0,1,17.74,0,12.86,12.86,0,0,1,0,17.74L519.29,599.07A12.65,12.65,0,0,1,510.42,602.62Z" transform="translate(-73.76 -73.75)"></path><path class="cls-3" d="M509,702.17a11.91,11.91,0,0,1-8.87-3.55,12.73,12.73,0,0,1,0-17.94l79.45-79.44c4.73-4.73,12.81-4.73,17.94,0a13.37,13.37,0,0,1,0,18.14l-79.45,79.24A11.85,11.85,0,0,1,509,702.17Z" transform="translate(-73.76 -73.75)"></path><path class="cls-3" d="M2266,478.62c.16-28.1.33-57.16-5.12-62.56-6.76-6.7-37.12-8.25-77.52-8.25-16.63,0-35,.26-54,.53l-16.6.23c-59.38.8-102.29,1.37-113.52,9.67-7.09,5.24-7.2,36.19-7.34,72-.12,33.28-.24,64.71,6.88,71.79,11.18,11.1,71.52,10.5,129.88,9.92,67-.67,115.43-1.15,129.06-10.24,8-5.35,8.12-33.17,8.27-71.68q0-5.93.06-11.44Zm35.18-103.19c22.52,22.33,22.34,54.63,22,103.52,0,3.64,0,7.42,0,11.32-.11,29-.19,50-3.24,67.67-2.59,15.07-8.58,36.8-30.52,51.42-27.79,18.52-69.3,18.94-160.23,19.85-14.21.14-27.3.25-39.39.25-72,0-108.27-3.81-131.41-26.81-24.11-23.94-24-59.21-23.77-112.59.22-59.56.35-95.51,30.55-117.83,26.05-19.25,63.89-19.76,146.78-20.87l16.54-.23c103.31-1.48,146.07-2.09,172.69,24.3ZM1518.44,571H1852v57.62H1460.82v-280h57.63V571Zm-140,59h-57V352.84h57ZM916.62,408.68c-5.36,3-10.83,7.93-10.83,22.33,0,11.22,3.62,17.35,12.94,21.87a55.84,55.84,0,0,0,20.46,4.91l209.46.82c36.39,0,90.71,22.47,90.71,84.4S1188.88,627.4,1155,627.4H848.17V569.78h306.54a40.7,40.7,0,0,0,16.2-4.45c5.36-3,10.83-7.93,10.83-22.33,0-11.22-3.63-17.35-12.94-21.87a56.05,56.05,0,0,0-20.48-4.91L939,515.29v.11c-36.51,0-90.83-22.47-90.83-84.39s50.48-84.4,84.41-84.4h306.78v57.62H932.83a40.74,40.74,0,0,0-16.21,4.45Z" transform="translate(-73.76 -73.75)"></path></g></svg> 